<?xml version="1.0" encoding="utf-8"?>
<!-- Generator: Adobe Illustrator 24.0.2, SVG Export Plug-In . SVG Version: 6.00 Build 0)  -->
<svg version="1.1" id="Fnatic_Logo" xmlns="http://www.w3.org/2000/svg" xmlns:xlink="http://www.w3.org/1999/xlink" x="0px"
	 y="0px" viewBox="0 0 44.8 44.8" style="enable-background:new 0 0 44.8 44.8;" xml:space="preserve">
<style type="text/css">
	.st0{fill:none;}
	.st1{fill:#FF5900;}
</style>
<g>
	<rect id="Bounding_box" y="0" class="st0" width="44.8" height="44.8"/>
	<g id="Logo">
		<path class="st1" d="M21.5,12.1c-1.6,0-3.1,0.1-4.6,0.2c-4,0.3-7.9,1-11.8,2l3.4,3.9c2.6-0.6,5.2-1,7.8-1.2
			c-1.2,4.8-3.9,9-7.8,11.9v5.5c6.6-3.7,11.2-10.2,12.6-17.7C21.4,15.2,21.5,13.6,21.5,12.1z"/>
		<path class="st1" d="M39.7,14.3c-3.9-1-7.8-1.7-11.8-2c-1.5-0.1-3.1-0.2-4.6-0.2c0,1.6,0.1,3.1,0.4,4.6c1.4,7.5,6,13.9,12.6,17.7
			v-5.5c-3.9-2.9-6.6-7.1-7.8-11.9c2.6,0.2,5.2,0.7,7.8,1.2L39.7,14.3z"/>
		<polygon class="st1" points="20.3,34.5 24.5,29.7 24.5,24.6 20.3,24.6 		"/>
	</g>
</g>
</svg>
